<svg width="995" height="518" viewBox="0 0 995 518" fill="none" xmlns="http://www.w3.org/2000/svg">
<path d="M67 257L73.8 231.8L144.6 183C158.2 173.667 165 165 165 157C165 152.467 163.4 148.933 160.2 146.4C157.133 143.867 152.867 142.6 147.4 142.6C137.133 142.6 126 148.4 114 160L95.2 140.4C110.133 123.467 128 115 148.8 115C163.2 115 174.733 118.6 183.4 125.8C192.2 133 196.6 142.267 196.6 153.6C196.6 162.4 194.133 170.333 189.2 177.4C184.4 184.467 175.867 192.267 163.6 200.8L120.4 230.4H179.2L172 257H67ZM255.922 257L263.922 226.8H199.122L196.122 204L292.722 116H322.722L299.722 201.8H318.522L311.722 226.8H292.922L284.922 257H255.922ZM235.122 201.8H270.722L282.722 157L235.122 201.8Z" fill="#242424"/>
<path d="M346.022 191L364.822 121H380.222L372.822 148.7H400.822L408.222 121H423.622L404.822 191H389.422L397.022 162.9H369.022L361.422 191H346.022ZM459.108 192.2C449.574 192.2 441.841 189.267 435.908 183.4C430.041 177.533 427.108 170.133 427.108 161.2C427.108 154.2 428.841 147.567 432.308 141.3C435.774 134.967 440.774 129.8 447.308 125.8C453.841 121.8 461.141 119.8 469.208 119.8C478.741 119.8 486.441 122.733 492.308 128.6C498.241 134.467 501.208 141.867 501.208 150.8C501.208 157.8 499.474 164.467 496.008 170.8C492.541 177.067 487.541 182.2 481.008 186.2C474.474 190.2 467.174 192.2 459.108 192.2ZM460.908 178C467.908 178 473.708 175.267 478.308 169.8C482.908 164.267 485.208 158.267 485.208 151.8C485.208 146.467 483.641 142.167 480.508 138.9C477.374 135.633 473.008 134 467.408 134C460.408 134 454.608 136.767 450.008 142.3C445.408 147.767 443.108 153.733 443.108 160.2C443.108 165.533 444.674 169.833 447.808 173.1C450.941 176.367 455.308 178 460.908 178ZM537.911 192.1C529.777 192.1 523.377 190.033 518.711 185.9C514.044 181.7 511.711 175.9 511.711 168.5C511.711 165.033 512.277 161.3 513.411 157.3L523.111 121H538.511L528.411 158.7C527.677 161.233 527.311 163.767 527.311 166.3C527.311 169.833 528.377 172.667 530.511 174.8C532.644 176.867 535.644 177.9 539.511 177.9C544.044 177.9 547.844 176.433 550.911 173.5C553.977 170.433 556.244 166.1 557.711 160.5L568.311 121H583.711L572.511 162.7C570.111 171.767 566.511 178.7 561.711 183.5C555.977 189.233 548.044 192.1 537.911 192.1ZM581.178 191L599.978 121H625.478C635.611 121 643.011 123.333 647.678 128C651.278 131.6 653.078 136.3 653.078 142.1C653.078 148.9 650.945 154.433 646.678 158.7C642.678 162.7 637.278 165.5 630.478 167.1L642.378 191H624.878L614.078 168.6H602.578L596.578 191H581.178ZM606.278 155H619.978C626.378 155 631.078 153.5 634.078 150.5C636.011 148.567 636.978 146.2 636.978 143.4C636.978 141.133 636.245 139.267 634.778 137.8C632.845 135.867 629.445 134.9 624.578 134.9H611.678L606.278 155ZM683.111 192C669.444 192 659.277 187.7 652.611 179.1L664.211 169.3C669.811 175.433 676.344 178.5 683.811 178.5C686.944 178.5 689.511 177.833 691.511 176.5C693.511 175.167 694.511 173.4 694.511 171.2C694.511 169.467 693.677 167.967 692.011 166.7C690.411 165.433 687.277 163.867 682.611 162C677.211 159.8 672.977 157.267 669.911 154.4C666.911 151.533 665.411 147.767 665.411 143.1C665.411 136.167 668.111 130.6 673.511 126.4C678.911 122.133 685.477 120 693.211 120C704.211 120 712.944 123.467 719.411 130.4L708.811 141C706.011 138.4 703.311 136.5 700.711 135.3C698.177 134.1 695.277 133.5 692.011 133.5C688.944 133.5 686.477 134.233 684.611 135.7C682.744 137.1 681.811 138.733 681.811 140.6C681.811 142.4 682.611 143.867 684.211 145C685.811 146.133 689.111 147.733 694.111 149.8C699.577 152 703.744 154.533 706.611 157.4C709.477 160.2 710.911 163.967 710.911 168.7C710.911 175.767 708.177 181.433 702.711 185.7C697.311 189.9 690.777 192 683.111 192Z" fill="#242424"/>
<path d="M326.2 267.583L345 197.583H360.4L353 225.283H381L388.4 197.583H403.8L385 267.583H369.6L377.2 239.483H349.2L341.6 267.583H326.2ZM439.286 268.783C429.753 268.783 422.019 265.85 416.086 259.983C410.219 254.116 407.286 246.716 407.286 237.783C407.286 230.783 409.019 224.15 412.486 217.883C415.953 211.55 420.953 206.383 427.486 202.383C434.019 198.383 441.319 196.383 449.386 196.383C458.919 196.383 466.619 199.316 472.486 205.183C478.419 211.05 481.386 218.45 481.386 227.383C481.386 234.383 479.653 241.05 476.186 247.383C472.719 253.65 467.719 258.783 461.186 262.783C454.653 266.783 447.353 268.783 439.286 268.783ZM441.086 254.583C448.086 254.583 453.886 251.85 458.486 246.383C463.086 240.85 465.386 234.85 465.386 228.383C465.386 223.05 463.819 218.75 460.686 215.483C457.553 212.216 453.186 210.583 447.586 210.583C440.586 210.583 434.786 213.35 430.186 218.883C425.586 224.35 423.286 230.316 423.286 236.783C423.286 242.116 424.853 246.416 427.986 249.683C431.119 252.95 435.486 254.583 441.086 254.583ZM513.289 268.583C499.622 268.583 489.456 264.283 482.789 255.683L494.389 245.883C499.989 252.016 506.522 255.083 513.989 255.083C517.122 255.083 519.689 254.416 521.689 253.083C523.689 251.75 524.689 249.983 524.689 247.783C524.689 246.05 523.856 244.55 522.189 243.283C520.589 242.016 517.456 240.45 512.789 238.583C507.389 236.383 503.156 233.85 500.089 230.983C497.089 228.116 495.589 224.35 495.589 219.683C495.589 212.75 498.289 207.183 503.689 202.983C509.089 198.716 515.656 196.583 523.389 196.583C534.389 196.583 543.122 200.05 549.589 206.983L538.989 217.583C536.189 214.983 533.489 213.083 530.889 211.883C528.356 210.683 525.456 210.083 522.189 210.083C519.122 210.083 516.656 210.816 514.789 212.283C512.922 213.683 511.989 215.316 511.989 217.183C511.989 218.983 512.789 220.45 514.389 221.583C515.989 222.716 519.289 224.316 524.289 226.383C529.756 228.583 533.922 231.116 536.789 233.983C539.656 236.783 541.089 240.55 541.089 245.283C541.089 252.35 538.356 258.016 532.889 262.283C527.489 266.483 520.956 268.583 513.289 268.583ZM560.236 267.583L575.236 211.783H553.936L557.736 197.583H615.736L611.936 211.783H590.636L575.636 267.583H560.236Z" fill="#242424"/>
<path d="M584.279 334.835C657.59 305.195 717.505 246.096 768.146 228.332C842.658 202.193 930.806 231.532 930.806 231.532C930.806 231.532 837.548 230.059 775.364 293.085C713.18 356.112 601.462 396.325 504.38 389.72C407.297 383.116 272.571 317.483 176.149 302.544C176.149 302.544 205.099 302.516 246.814 311.79C339.75 332.451 501.279 368.392 584.279 334.835Z" fill="#242424"/>
<path d="M586.272 308.488C657.245 273.618 712.724 210.336 761.945 188.951C834.369 157.487 924.41 180.366 924.41 180.366C924.41 180.366 831.29 185.649 773.833 253.013C716.376 320.376 629.86 363.964 532.778 375.191C469.474 382.512 359.214 350.386 271.91 326.98C225.326 314.491 201.245 305.677 160.298 302.544C160.298 302.544 180.772 297.921 265.306 309.149C362.157 319.783 522.765 339.691 586.272 308.488Z" fill="#242424"/>
<g filter="url(#filter0_d_2_15)">
<path d="M58 251L64.8 225.8L135.6 177C149.2 167.667 156 159 156 151C156 146.467 154.4 142.933 151.2 140.4C148.133 137.867 143.867 136.6 138.4 136.6C128.133 136.6 117 142.4 105 154L86.2 134.4C101.133 117.467 119 109 139.8 109C154.2 109 165.733 112.6 174.4 119.8C183.2 127 187.6 136.267 187.6 147.6C187.6 156.4 185.133 164.333 180.2 171.4C175.4 178.467 166.867 186.267 154.6 194.8L111.4 224.4H170.2L163 251H58ZM246.922 251L254.922 220.8H190.122L187.122 198L283.722 110H313.722L290.722 195.8H309.522L302.722 220.8H283.922L275.922 251H246.922ZM226.122 195.8H261.722L273.722 151L226.122 195.8Z" fill="white"/>
<path d="M337.022 185L355.822 115H371.222L363.822 142.7H391.822L399.222 115H414.622L395.822 185H380.422L388.022 156.9H360.022L352.422 185H337.022ZM450.108 186.2C440.574 186.2 432.841 183.267 426.908 177.4C421.041 171.533 418.108 164.133 418.108 155.2C418.108 148.2 419.841 141.567 423.308 135.3C426.774 128.967 431.774 123.8 438.308 119.8C444.841 115.8 452.141 113.8 460.208 113.8C469.741 113.8 477.441 116.733 483.308 122.6C489.241 128.467 492.208 135.867 492.208 144.8C492.208 151.8 490.474 158.467 487.008 164.8C483.541 171.067 478.541 176.2 472.008 180.2C465.474 184.2 458.174 186.2 450.108 186.2ZM451.908 172C458.908 172 464.708 169.267 469.308 163.8C473.908 158.267 476.208 152.267 476.208 145.8C476.208 140.467 474.641 136.167 471.508 132.9C468.374 129.633 464.008 128 458.408 128C451.408 128 445.608 130.767 441.008 136.3C436.408 141.767 434.108 147.733 434.108 154.2C434.108 159.533 435.674 163.833 438.808 167.1C441.941 170.367 446.308 172 451.908 172ZM528.911 186.1C520.777 186.1 514.377 184.033 509.711 179.9C505.044 175.7 502.711 169.9 502.711 162.5C502.711 159.033 503.277 155.3 504.411 151.3L514.111 115H529.511L519.411 152.7C518.677 155.233 518.311 157.767 518.311 160.3C518.311 163.833 519.377 166.667 521.511 168.8C523.644 170.867 526.644 171.9 530.511 171.9C535.044 171.9 538.844 170.433 541.911 167.5C544.977 164.433 547.244 160.1 548.711 154.5L559.311 115H574.711L563.511 156.7C561.111 165.767 557.511 172.7 552.711 177.5C546.977 183.233 539.044 186.1 528.911 186.1ZM572.178 185L590.978 115H616.478C626.611 115 634.011 117.333 638.678 122C642.278 125.6 644.078 130.3 644.078 136.1C644.078 142.9 641.945 148.433 637.678 152.7C633.678 156.7 628.278 159.5 621.478 161.1L633.378 185H615.878L605.078 162.6H593.578L587.578 185H572.178ZM597.278 149H610.978C617.378 149 622.078 147.5 625.078 144.5C627.011 142.567 627.978 140.2 627.978 137.4C627.978 135.133 627.245 133.267 625.778 131.8C623.845 129.867 620.445 128.9 615.578 128.9H602.678L597.278 149ZM674.111 186C660.444 186 650.277 181.7 643.611 173.1L655.211 163.3C660.811 169.433 667.344 172.5 674.811 172.5C677.944 172.5 680.511 171.833 682.511 170.5C684.511 169.167 685.511 167.4 685.511 165.2C685.511 163.467 684.677 161.967 683.011 160.7C681.411 159.433 678.277 157.867 673.611 156C668.211 153.8 663.977 151.267 660.911 148.4C657.911 145.533 656.411 141.767 656.411 137.1C656.411 130.167 659.111 124.6 664.511 120.4C669.911 116.133 676.477 114 684.211 114C695.211 114 703.944 117.467 710.411 124.4L699.811 135C697.011 132.4 694.311 130.5 691.711 129.3C689.177 128.1 686.277 127.5 683.011 127.5C679.944 127.5 677.477 128.233 675.611 129.7C673.744 131.1 672.811 132.733 672.811 134.6C672.811 136.4 673.611 137.867 675.211 139C676.811 140.133 680.111 141.733 685.111 143.8C690.577 146 694.744 148.533 697.611 151.4C700.477 154.2 701.911 157.967 701.911 162.7C701.911 169.767 699.177 175.433 693.711 179.7C688.311 183.9 681.777 186 674.111 186Z" fill="white"/>
<path d="M317.2 261.583L336 191.583H351.4L344 219.283H372L379.4 191.583H394.8L376 261.583H360.6L368.2 233.483H340.2L332.6 261.583H317.2ZM430.286 262.783C420.753 262.783 413.019 259.85 407.086 253.983C401.219 248.116 398.286 240.716 398.286 231.783C398.286 224.783 400.019 218.15 403.486 211.883C406.953 205.55 411.953 200.383 418.486 196.383C425.019 192.383 432.319 190.383 440.386 190.383C449.919 190.383 457.619 193.316 463.486 199.183C469.419 205.05 472.386 212.45 472.386 221.383C472.386 228.383 470.653 235.05 467.186 241.383C463.719 247.65 458.719 252.783 452.186 256.783C445.653 260.783 438.353 262.783 430.286 262.783ZM432.086 248.583C439.086 248.583 444.886 245.85 449.486 240.383C454.086 234.85 456.386 228.85 456.386 222.383C456.386 217.05 454.819 212.75 451.686 209.483C448.553 206.216 444.186 204.583 438.586 204.583C431.586 204.583 425.786 207.35 421.186 212.883C416.586 218.35 414.286 224.316 414.286 230.783C414.286 236.116 415.853 240.416 418.986 243.683C422.119 246.95 426.486 248.583 432.086 248.583ZM504.289 262.583C490.622 262.583 480.456 258.283 473.789 249.683L485.389 239.883C490.989 246.016 497.522 249.083 504.989 249.083C508.122 249.083 510.689 248.416 512.689 247.083C514.689 245.75 515.689 243.983 515.689 241.783C515.689 240.05 514.856 238.55 513.189 237.283C511.589 236.016 508.456 234.45 503.789 232.583C498.389 230.383 494.156 227.85 491.089 224.983C488.089 222.116 486.589 218.35 486.589 213.683C486.589 206.75 489.289 201.183 494.689 196.983C500.089 192.716 506.656 190.583 514.389 190.583C525.389 190.583 534.122 194.05 540.589 200.983L529.989 211.583C527.189 208.983 524.489 207.083 521.889 205.883C519.356 204.683 516.456 204.083 513.189 204.083C510.122 204.083 507.656 204.816 505.789 206.283C503.922 207.683 502.989 209.316 502.989 211.183C502.989 212.983 503.789 214.45 505.389 215.583C506.989 216.716 510.289 218.316 515.289 220.383C520.756 222.583 524.922 225.116 527.789 227.983C530.656 230.783 532.089 234.55 532.089 239.283C532.089 246.35 529.356 252.016 523.889 256.283C518.489 260.483 511.956 262.583 504.289 262.583ZM551.236 261.583L566.236 205.783H544.936L548.736 191.583H606.736L602.936 205.783H581.636L566.636 261.583H551.236Z" fill="white"/>
</g>
<g filter="url(#filter1_d_2_15)">
<path d="M575.279 328.835C648.59 299.195 708.505 240.096 759.146 222.332C833.658 196.193 921.806 225.532 921.806 225.532C921.806 225.532 828.548 224.059 766.364 287.085C704.18 350.112 592.462 390.325 495.38 383.72C398.297 377.116 263.571 311.483 167.149 296.544C167.149 296.544 196.099 296.516 237.814 305.79C330.75 326.451 492.279 362.392 575.279 328.835Z" fill="white"/>
<path d="M577.272 302.488C648.245 267.618 703.724 204.336 752.945 182.951C825.369 151.487 915.41 174.366 915.41 174.366C915.41 174.366 822.29 179.649 764.833 247.013C707.376 314.376 620.86 357.964 523.778 369.191C460.474 376.512 350.214 344.386 262.91 320.98C216.326 308.491 192.245 299.677 151.298 296.544C151.298 296.544 171.772 291.921 256.306 303.149C353.157 313.783 513.765 333.691 577.272 302.488Z" fill="#007AFF"/>
</g>
<defs>
<filter id="filter0_d_2_15" x="58" y="109" width="672.411" height="173.783" filterUnits="userSpaceOnUse" color-interpolation-filters="sRGB">
<feFlood flood-opacity="0" result="BackgroundImageFix"/>
<feColorMatrix in="SourceAlpha" type="matrix" values="0 0 0 0 0 0 0 0 0 0 0 0 0 0 0 0 0 0 127 0" result="hardAlpha"/>
<feOffset dx="10" dy="10"/>
<feGaussianBlur stdDeviation="5"/>
<feComposite in2="hardAlpha" operator="out"/>
<feColorMatrix type="matrix" values="0 0 0 0 0 0 0 0 0 0 0 0 0 0 0 0 0 0 0.25 0"/>
<feBlend mode="normal" in2="BackgroundImageFix" result="effect1_dropShadow_2_15"/>
<feBlend mode="normal" in="SourceGraphic" in2="effect1_dropShadow_2_15" result="shape"/>
</filter>
<filter id="filter1_d_2_15" x="151.298" y="166.333" width="790.507" height="238.095" filterUnits="userSpaceOnUse" color-interpolation-filters="sRGB">
<feFlood flood-opacity="0" result="BackgroundImageFix"/>
<feColorMatrix in="SourceAlpha" type="matrix" values="0 0 0 0 0 0 0 0 0 0 0 0 0 0 0 0 0 0 127 0" result="hardAlpha"/>
<feOffset dx="10" dy="10"/>
<feGaussianBlur stdDeviation="5"/>
<feComposite in2="hardAlpha" operator="out"/>
<feColorMatrix type="matrix" values="0 0 0 0 0 0 0 0 0 0 0 0 0 0 0 0 0 0 0.25 0"/>
<feBlend mode="normal" in2="BackgroundImageFix" result="effect1_dropShadow_2_15"/>
<feBlend mode="normal" in="SourceGraphic" in2="effect1_dropShadow_2_15" result="shape"/>
</filter>
</defs>
</svg>
