<svg width="420" height="420" viewBox="0 0 420 420" fill="none" xmlns="http://www.w3.org/2000/svg">
<mask id="path-1-outside-1_1_6" maskUnits="userSpaceOnUse" x="28" y="3" width="362" height="223" fill="black">
<rect fill="white" x="28" y="3" width="362" height="223"/>
<path d="M42.0208 214V179.84L107.261 126.36C120.141 115.72 129.007 107.227 133.861 100.88C138.714 94.3467 141.141 87.16 141.141 79.32C141.141 71.2933 138.714 65.04 133.861 60.56C129.007 56.08 122.661 53.84 114.821 53.84C107.541 53.84 100.914 55.8933 94.9408 60C89.1541 63.92 82.4341 70.64 74.7808 80.16L44.5408 55.8C54.8074 41.8 65.3541 31.5333 76.1808 25C87.1941 18.4667 101.007 15.2 117.621 15.2C137.967 15.2 154.301 20.8 166.621 32C178.941 43.0133 185.101 57.76 185.101 76.24C185.101 86.88 183.047 96.4933 178.941 105.08C174.834 113.48 169.514 120.947 162.981 127.48C156.447 133.827 146.647 142.04 133.581 152.12L101.661 176.76H187.061V214H42.0208ZM310.092 214V171.72H214.332L207.332 141.2L314.852 16.6H351.252V136.72H377.572V171.72H351.252V214H310.092ZM258.012 136.72H310.092V75.68L258.012 136.72Z"/>
</mask>
<path d="M42.0208 214V179.84L107.261 126.36C120.141 115.72 129.007 107.227 133.861 100.88C138.714 94.3467 141.141 87.16 141.141 79.32C141.141 71.2933 138.714 65.04 133.861 60.56C129.007 56.08 122.661 53.84 114.821 53.84C107.541 53.84 100.914 55.8933 94.9408 60C89.1541 63.92 82.4341 70.64 74.7808 80.16L44.5408 55.8C54.8074 41.8 65.3541 31.5333 76.1808 25C87.1941 18.4667 101.007 15.2 117.621 15.2C137.967 15.2 154.301 20.8 166.621 32C178.941 43.0133 185.101 57.76 185.101 76.24C185.101 86.88 183.047 96.4933 178.941 105.08C174.834 113.48 169.514 120.947 162.981 127.48C156.447 133.827 146.647 142.04 133.581 152.12L101.661 176.76H187.061V214H42.0208ZM310.092 214V171.72H214.332L207.332 141.2L314.852 16.6H351.252V136.72H377.572V171.72H351.252V214H310.092ZM258.012 136.72H310.092V75.68L258.012 136.72Z" fill="#1E1E1E"/>
<path d="M42.0208 214H30.0208V226H42.0208V214ZM42.0208 179.84L34.4133 170.56L30.0208 174.16V179.84H42.0208ZM107.261 126.36L114.868 135.64L114.886 135.626L114.903 135.612L107.261 126.36ZM133.861 100.88L143.393 108.169L143.444 108.103L143.494 108.036L133.861 100.88ZM133.861 60.56L125.721 69.3776L125.721 69.3776L133.861 60.56ZM94.9408 60L101.671 69.935L101.705 69.9119L101.739 69.8885L94.9408 60ZM74.7808 80.16L67.2528 89.505L76.6072 97.0405L84.1333 87.6787L74.7808 80.16ZM44.5408 55.8L34.8639 48.7036L28.0824 57.9511L37.0128 65.145L44.5408 55.8ZM76.1808 25L70.0584 14.6793L70.0195 14.7024L69.9808 14.7257L76.1808 25ZM166.621 32L158.549 40.8793L158.586 40.913L158.623 40.9464L166.621 32ZM178.941 105.08L189.721 110.351L189.744 110.304L189.766 110.257L178.941 105.08ZM162.981 127.48L171.342 136.087L171.405 136.027L171.466 135.965L162.981 127.48ZM133.581 152.12L126.251 142.619L126.248 142.621L133.581 152.12ZM101.661 176.76L94.3282 167.261L66.4771 188.76H101.661V176.76ZM187.061 176.76H199.061V164.76H187.061V176.76ZM187.061 214V226H199.061V214H187.061ZM54.0208 214V179.84H30.0208V214H54.0208ZM49.6283 189.12L114.868 135.64L99.6533 117.08L34.4133 170.56L49.6283 189.12ZM114.903 135.612C127.897 124.877 137.662 115.664 143.393 108.169L124.328 93.5906C120.353 98.7891 112.384 106.563 99.6182 117.108L114.903 135.612ZM143.494 108.036C149.821 99.5178 153.141 89.8409 153.141 79.32H129.141C129.141 84.4791 127.607 89.1755 124.228 93.7241L143.494 108.036ZM153.141 79.32C153.141 68.7226 149.833 58.9731 142 51.7423L125.721 69.3776C127.595 71.1068 129.141 73.864 129.141 79.32H153.141ZM142 51.7423C134.526 44.8435 125.079 41.84 114.821 41.84V65.84C120.243 65.84 123.488 67.3165 125.721 69.3776L142 51.7423ZM114.821 41.84C105.124 41.84 96.1253 44.6232 88.1424 50.1115L101.739 69.8885C105.703 67.1634 109.957 65.84 114.821 65.84V41.84ZM88.2106 50.065C80.9616 54.9756 73.3601 62.7749 65.4283 72.6413L84.1333 87.6787C91.5081 78.5051 97.3466 72.8644 101.671 69.935L88.2106 50.065ZM82.3087 70.8149L52.0687 46.455L37.0128 65.145L67.2528 89.505L82.3087 70.8149ZM54.2176 62.8964C63.8739 49.7287 73.3164 40.7441 82.3808 35.2743L69.9808 14.7257C57.3919 22.3225 45.741 33.8713 34.8639 48.7036L54.2176 62.8964ZM82.3032 35.3207C90.99 30.1675 102.535 27.2 117.621 27.2V3.19999C99.4797 3.19999 83.3983 6.76583 70.0584 14.6793L82.3032 35.3207ZM117.621 27.2C135.677 27.2 148.903 32.1105 158.549 40.8793L174.693 23.1207C159.699 9.48948 140.257 3.19999 117.621 3.19999V27.2ZM158.623 40.9464C168.079 49.3996 173.101 60.7258 173.101 76.24H197.101C197.101 54.7942 189.802 36.6271 174.618 23.0536L158.623 40.9464ZM173.101 76.24C173.101 85.301 171.362 93.114 168.115 99.9025L189.766 110.257C194.733 99.8727 197.101 88.459 197.101 76.24H173.101ZM168.16 99.8095C164.629 107.033 160.08 113.41 154.496 118.995L171.466 135.965C178.948 128.483 185.04 119.927 189.721 110.351L168.16 99.8095ZM154.619 118.873C148.574 124.745 139.196 132.633 126.251 142.619L140.91 161.621C154.099 151.447 164.32 142.909 171.342 136.087L154.619 118.873ZM126.248 142.621L94.3282 167.261L108.993 186.259L140.913 161.619L126.248 142.621ZM101.661 188.76H187.061V164.76H101.661V188.76ZM175.061 176.76V214H199.061V176.76H175.061ZM187.061 202H42.0208V226H187.061V202ZM310.092 214H298.092V226H310.092V214ZM310.092 171.72H322.092V159.72H310.092V171.72ZM214.332 171.72L202.636 174.403L204.773 183.72H214.332V171.72ZM207.332 141.2L198.247 133.36L194.278 137.96L195.636 143.883L207.332 141.2ZM314.852 16.6V4.59999H309.357L305.767 8.76027L314.852 16.6ZM351.252 16.6H363.252V4.59999H351.252V16.6ZM351.252 136.72H339.252V148.72H351.252V136.72ZM377.572 136.72H389.572V124.72H377.572V136.72ZM377.572 171.72V183.72H389.572V171.72H377.572ZM351.252 171.72V159.72H339.252V171.72H351.252ZM351.252 214V226H363.252V214H351.252ZM258.012 136.72L248.884 128.931L232 148.72H258.012V136.72ZM310.092 136.72V148.72H322.092V136.72H310.092ZM310.092 75.68H322.092V43.1274L300.964 67.8912L310.092 75.68ZM322.092 214V171.72H298.092V214H322.092ZM310.092 159.72H214.332V183.72H310.092V159.72ZM226.029 169.037L219.029 138.517L195.636 143.883L202.636 174.403L226.029 169.037ZM216.417 149.04L323.937 24.4397L305.767 8.76027L198.247 133.36L216.417 149.04ZM314.852 28.6H351.252V4.59999H314.852V28.6ZM339.252 16.6V136.72H363.252V16.6H339.252ZM351.252 148.72H377.572V124.72H351.252V148.72ZM365.572 136.72V171.72H389.572V136.72H365.572ZM377.572 159.72H351.252V183.72H377.572V159.72ZM339.252 171.72V214H363.252V171.72H339.252ZM351.252 202H310.092V226H351.252V202ZM258.012 148.72H310.092V124.72H258.012V148.72ZM322.092 136.72V75.68H298.092V136.72H322.092ZM300.964 67.8912L248.884 128.931L267.141 144.509L319.221 83.4688L300.964 67.8912Z" fill="#D9D9D9" mask="url(#path-1-outside-1_1_6)"/>
<mask id="path-3-outside-2_1_6" maskUnits="userSpaceOnUse" x="30" y="213" width="360" height="198" fill="black">
<rect fill="white" x="30" y="213" width="360" height="198"/>
<path d="M42.4101 399V225.4H80.6021V294.096H151.034V225.4H189.226V399H151.034V329.312H80.6021V399H42.4101ZM230.832 399V225.4H269.024V294.096H339.456V225.4H377.648V399H339.456V329.312H269.024V399H230.832Z"/>
</mask>
<path d="M42.4101 399V225.4H80.6021V294.096H151.034V225.4H189.226V399H151.034V329.312H80.6021V399H42.4101ZM230.832 399V225.4H269.024V294.096H339.456V225.4H377.648V399H339.456V329.312H269.024V399H230.832Z" fill="#1E1E1E"/>
<path d="M42.4101 399H30.4101V411H42.4101V399ZM42.4101 225.4V213.4H30.4101V225.4H42.4101ZM80.6021 225.4H92.6021V213.4H80.6021V225.4ZM80.6021 294.096H68.6021V306.096H80.6021V294.096ZM151.034 294.096V306.096H163.034V294.096H151.034ZM151.034 225.4V213.4H139.034V225.4H151.034ZM189.226 225.4H201.226V213.4H189.226V225.4ZM189.226 399V411H201.226V399H189.226ZM151.034 399H139.034V411H151.034V399ZM151.034 329.312H163.034V317.312H151.034V329.312ZM80.6021 329.312V317.312H68.6021V329.312H80.6021ZM80.6021 399V411H92.6021V399H80.6021ZM54.4101 399V225.4H30.4101V399H54.4101ZM42.4101 237.4H80.6021V213.4H42.4101V237.4ZM68.6021 225.4V294.096H92.6021V225.4H68.6021ZM80.6021 306.096H151.034V282.096H80.6021V306.096ZM163.034 294.096V225.4H139.034V294.096H163.034ZM151.034 237.4H189.226V213.4H151.034V237.4ZM177.226 225.4V399H201.226V225.4H177.226ZM189.226 387H151.034V411H189.226V387ZM163.034 399V329.312H139.034V399H163.034ZM151.034 317.312H80.6021V341.312H151.034V317.312ZM68.6021 329.312V399H92.6021V329.312H68.6021ZM80.6021 387H42.4101V411H80.6021V387ZM230.832 399H218.832V411H230.832V399ZM230.832 225.4V213.4H218.832V225.4H230.832ZM269.024 225.4H281.024V213.4H269.024V225.4ZM269.024 294.096H257.024V306.096H269.024V294.096ZM339.456 294.096V306.096H351.456V294.096H339.456ZM339.456 225.4V213.4H327.456V225.4H339.456ZM377.648 225.4H389.648V213.4H377.648V225.4ZM377.648 399V411H389.648V399H377.648ZM339.456 399H327.456V411H339.456V399ZM339.456 329.312H351.456V317.312H339.456V329.312ZM269.024 329.312V317.312H257.024V329.312H269.024ZM269.024 399V411H281.024V399H269.024ZM242.832 399V225.4H218.832V399H242.832ZM230.832 237.4H269.024V213.4H230.832V237.4ZM257.024 225.4V294.096H281.024V225.4H257.024ZM269.024 306.096H339.456V282.096H269.024V306.096ZM351.456 294.096V225.4H327.456V294.096H351.456ZM339.456 237.4H377.648V213.4H339.456V237.4ZM365.648 225.4V399H389.648V225.4H365.648ZM377.648 387H339.456V411H377.648V387ZM351.456 399V329.312H327.456V399H351.456ZM339.456 317.312H269.024V341.312H339.456V317.312ZM257.024 329.312V399H281.024V329.312H257.024ZM269.024 387H230.832V411H269.024V387Z" fill="#D9D9D9" mask="url(#path-3-outside-2_1_6)"/>
</svg>
