<svg width="418" height="418" viewBox="0 0 418 418" fill="none" xmlns="http://www.w3.org/2000/svg">
<circle cx="209" cy="209" r="209" fill="#14141F"/>
<path d="M85.8432 353V288.6H100.011V314.084H126.139V288.6H140.307V353H126.139V327.148H100.011V353H85.8432ZM211.494 344.444C204.992 350.884 196.835 354.104 187.022 354.104C177.208 354.104 169.051 350.884 162.55 344.444C156.11 338.004 152.89 330.123 152.89 320.8C152.89 311.539 156.14 303.688 162.642 297.248C169.204 290.747 177.392 287.496 187.206 287.496C197.019 287.496 205.146 290.716 211.586 297.156C218.087 303.596 221.338 311.477 221.338 320.8C221.338 330.061 218.056 337.943 211.494 344.444ZM173.222 335.152C176.902 339.077 181.563 341.04 187.206 341.04C192.848 341.04 197.479 339.108 201.098 335.244C204.716 331.319 206.526 326.504 206.526 320.8C206.526 315.157 204.686 310.373 201.006 306.448C197.326 302.523 192.664 300.56 187.022 300.56C181.379 300.56 176.748 302.523 173.13 306.448C169.511 310.312 167.702 315.096 167.702 320.8C167.702 326.443 169.542 331.227 173.222 335.152ZM256.365 353.92C245.815 353.92 236.707 350.485 229.041 343.616L237.413 333.588C243.73 338.801 250.139 341.408 256.641 341.408C259.523 341.408 261.793 340.856 263.449 339.752C265.105 338.648 265.933 337.115 265.933 335.152C265.933 333.312 265.074 331.84 263.357 330.736C261.639 329.571 258.174 328.313 252.961 326.964C249.281 326.044 246.306 325.155 244.037 324.296C241.767 323.376 239.59 322.18 237.505 320.708C235.481 319.236 233.978 317.396 232.997 315.188C232.077 312.919 231.617 310.22 231.617 307.092C231.617 301.265 233.702 296.573 237.873 293.016C242.105 289.459 247.533 287.68 254.157 287.68C263.295 287.68 271.269 290.409 278.077 295.868L270.717 306.54C264.645 302.308 259.063 300.192 253.973 300.192C251.335 300.192 249.281 300.744 247.809 301.848C246.398 302.891 245.693 304.271 245.693 305.988C245.693 308.073 246.582 309.637 248.361 310.68C250.139 311.723 253.881 312.98 259.585 314.452C266.577 316.292 271.729 318.653 275.041 321.536C278.353 324.419 280.009 328.559 280.009 333.956C280.009 340.212 277.831 345.119 273.477 348.676C269.183 352.172 263.479 353.92 256.365 353.92ZM305.953 353V301.664H286.357V288.6H339.717V301.664H320.121V353H305.953Z" fill="white"/>
<path d="M83.6155 207V181.502L132.313 141.583C141.927 133.641 148.545 127.301 152.168 122.564C155.79 117.687 157.602 112.323 157.602 106.471C157.602 100.48 155.79 95.812 152.168 92.468C148.545 89.124 143.808 87.452 137.956 87.452C132.522 87.452 127.575 88.9847 123.117 92.05C118.797 94.976 113.781 99.992 108.069 107.098L85.4965 88.915C93.1598 78.465 101.032 70.8017 109.114 65.925C117.334 61.0483 127.645 58.61 140.046 58.61C155.233 58.61 167.425 62.79 176.621 71.15C185.817 79.3707 190.415 90.378 190.415 104.172C190.415 112.114 188.882 119.29 185.817 125.699C182.751 131.969 178.78 137.542 173.904 142.419C169.027 147.156 161.712 153.287 151.959 160.811L128.133 179.203H191.878V207H83.6155ZM283.712 207V175.441H212.234L207.009 152.66L287.265 59.655H314.435V149.316H334.081V175.441H314.435V207H283.712ZM244.838 149.316H283.712V103.754L244.838 149.316Z" fill="white"/>
<path d="M83.9161 269V220H94.6961V239.39H114.576V220H125.356V269H114.576V249.33H94.6961V269H83.9161ZM179.52 262.49C174.573 267.39 168.366 269.84 160.9 269.84C153.433 269.84 147.226 267.39 142.28 262.49C137.38 257.59 134.93 251.593 134.93 244.5C134.93 237.453 137.403 231.48 142.35 226.58C147.343 221.633 153.573 219.16 161.04 219.16C168.506 219.16 174.69 221.61 179.59 226.51C184.536 231.41 187.01 237.407 187.01 244.5C187.01 251.547 184.513 257.543 179.52 262.49ZM150.4 255.42C153.2 258.407 156.746 259.9 161.04 259.9C165.333 259.9 168.856 258.43 171.61 255.49C174.363 252.503 175.74 248.84 175.74 244.5C175.74 240.207 174.34 236.567 171.54 233.58C168.74 230.593 165.193 229.1 160.9 229.1C156.606 229.1 153.083 230.593 150.33 233.58C147.576 236.52 146.2 240.16 146.2 244.5C146.2 248.793 147.6 252.433 150.4 255.42ZM217.012 269.77C210.339 269.77 205.136 267.927 201.402 264.24C197.669 260.507 195.802 255.093 195.802 248V220H206.582V247.72C206.582 251.64 207.492 254.65 209.312 256.75C211.179 258.803 213.792 259.83 217.152 259.83C220.512 259.83 223.102 258.827 224.922 256.82C226.789 254.813 227.722 251.897 227.722 248.07V220H238.502V247.65C238.502 254.93 236.589 260.437 232.762 264.17C228.982 267.903 223.732 269.77 217.012 269.77ZM249.483 269V220H271.883C278.089 220 282.849 221.657 286.163 224.97C288.963 227.77 290.363 231.55 290.363 236.31C290.363 243.823 286.863 248.887 279.863 251.5L291.833 269H279.233L268.593 253.32H260.263V269H249.483ZM260.263 243.8H271.183C273.796 243.8 275.826 243.17 277.273 241.91C278.719 240.603 279.443 238.877 279.443 236.73C279.443 234.443 278.696 232.717 277.203 231.55C275.709 230.337 273.633 229.73 270.973 229.73H260.263V243.8ZM317.498 269.7C309.472 269.7 302.542 267.087 296.708 261.86L303.078 254.23C307.885 258.197 312.762 260.18 317.708 260.18C319.902 260.18 321.628 259.76 322.888 258.92C324.148 258.08 324.778 256.913 324.778 255.42C324.778 254.02 324.125 252.9 322.818 252.06C321.512 251.173 318.875 250.217 314.908 249.19C312.108 248.49 309.845 247.813 308.118 247.16C306.392 246.46 304.735 245.55 303.148 244.43C301.608 243.31 300.465 241.91 299.718 240.23C299.018 238.503 298.668 236.45 298.668 234.07C298.668 229.637 300.255 226.067 303.428 223.36C306.648 220.653 310.778 219.3 315.818 219.3C322.772 219.3 328.838 221.377 334.018 225.53L328.418 233.65C323.798 230.43 319.552 228.82 315.678 228.82C313.672 228.82 312.108 229.24 310.988 230.08C309.915 230.873 309.378 231.923 309.378 233.23C309.378 234.817 310.055 236.007 311.408 236.8C312.762 237.593 315.608 238.55 319.948 239.67C325.268 241.07 329.188 242.867 331.708 245.06C334.228 247.253 335.488 250.403 335.488 254.51C335.488 259.27 333.832 263.003 330.518 265.71C327.252 268.37 322.912 269.7 317.498 269.7Z" fill="white"/>
</svg>
